<?xml version="1.0" encoding="UTF-8"?>
<!DOCTYPE svg PUBLIC "-//W3C//DTD SVG 1.1//EN" "http://www.w3.org/Graphics/SVG/1.1/DTD/svg11.dtd">
<!-- Creator: CorelDRAW X7 -->
<svg xmlns="http://www.w3.org/2000/svg" xml:space="preserve" width="135.577mm" height="23.2458mm" version="1.1" style="shape-rendering:geometricPrecision; text-rendering:geometricPrecision; image-rendering:optimizeQuality; fill-rule:evenodd; clip-rule:evenodd"
viewBox="0 0 12260 2102"
 xmlns:xlink="http://www.w3.org/1999/xlink">
 <defs>
  <style type="text/css">
   <![CDATA[
    .fil0 {fill:black}
   ]]>
  </style>
 </defs>
 <g id="Layer_x0020_1">
  <metadata id="CorelCorpID_0Corel-Layer"/>
  <path class="fil0" d="M7611 628l0 121c0,24 -24,48 -49,48 -24,0 -72,0 -96,0 -169,0 -242,97 -242,266l0 435c0,0 -24,24 -48,24l-145 0c-24,0 -24,-24 -24,-24l0 -870c0,-24 0,-48 24,-48l145 0c24,0 24,24 24,48l0 49c72,-73 169,-97 290,-97 24,0 48,0 72,0 25,0 49,24 49,48l0 0zm-1450 363c0,0 0,-25 24,-25l338 -338c25,-24 0,-48 -24,-48l-193 0c-24,0 -24,0 -24,24l-387 338c-24,24 -48,24 -48,0l0 -314c0,-24 -24,-48 -48,-48l-145 0c0,0 -25,24 -25,48l0 870c0,0 25,24 25,24l145 0c24,0 48,-24 48,-24l0 -217c0,0 0,-25 0,-25l121 -120c24,0 24,0 48,24l290 362c0,0 24,0 24,0l218 0c0,0 24,-24 0,-24l-387 -507zm-1136 -411l-145 0c-24,0 -48,24 -48,48l0 870c0,0 24,24 48,24l145 0c25,0 25,-24 25,-24l0 -870c0,-24 0,-48 -25,-48zm5050 0l-870 0c0,0 -24,24 -24,48l0 121c0,24 24,48 24,48l290 0c24,0 24,0 24,24l0 677c0,0 25,24 49,24l145 0c24,0 48,-24 48,-24l0 -677c0,-24 0,-24 24,-24l290 0c0,0 24,-24 24,-48l0 -121c0,-24 -24,-48 -24,-48l0 0zm-1184 483c0,266 -217,483 -507,483 -266,0 -483,-217 -483,-483 0,-290 217,-483 483,-483 290,0 507,193 507,483zm-217 0c0,-169 -121,-290 -290,-290 -145,0 -266,121 -266,290 0,169 121,266 266,266 169,0 290,-97 290,-266zm2053 -483l-145 0c-24,0 -48,24 -48,48l0 870c0,0 24,24 48,24l145 0c25,0 25,-24 25,-24l0 -870c0,-24 0,-48 -25,-48zm-6837 0c-121,0 -242,48 -314,121 -24,0 -24,0 -48,0 -73,-73 -170,-121 -290,-121 -121,0 -218,24 -266,96l0 -48c0,-24 -24,-48 -49,-48l-120 0c-24,0 -49,24 -49,48l0 870c0,0 25,24 49,24l120 0c25,0 49,-24 49,-24l0 -459c0,-169 96,-266 241,-266 121,0 194,73 194,242l0 483c0,0 24,24 48,24l121 0c24,0 48,-24 48,-24l0 -459c0,-169 97,-266 242,-266 121,0 193,73 193,242l0 483c0,0 24,24 48,24l121 0c24,0 48,-24 48,-24l0 -507c0,-266 -144,-411 -386,-411zm8360 918l-387 -507c0,0 0,-25 0,-25l362 -338c0,-24 0,-48 -24,-48l-193 0c-24,0 -24,0 -24,24l-411 338c0,24 -24,24 -24,0l0 -314c0,-24 -24,-48 -48,-48l-145 0c-25,0 -25,24 -25,48l0 870c0,0 0,24 25,24l145 0c24,0 48,-24 48,-24l0 -217c0,0 0,-25 0,-25l121 -120c24,0 24,0 48,24l290 362c0,0 24,0 24,0l193 0c25,0 49,-24 25,-24zm-10293 -942c0,-24 0,-24 0,-24 0,0 0,-25 -24,-25 0,-24 -48,-48 -97,-72l-338 -193 -362 -194c-49,-24 -97,-48 -121,-48 0,0 -24,0 -24,0 -49,0 -97,24 -145,48l-339 194 -362 193c-48,24 -97,48 -97,72 -24,0 -24,25 -24,25 0,0 0,0 0,24 -24,24 -24,72 -24,121l0 773c0,48 0,96 24,145 24,24 73,48 121,72l362 193 339 218c48,24 96,24 120,24 25,0 25,0 25,0 0,0 24,0 24,0 24,0 72,0 121,-24l700 -411c73,-24 97,-48 121,-72 0,-25 0,-25 0,-25 24,-24 24,-72 24,-120l0 -774c0,-48 0,-96 -24,-120l0 0zm-1377 918c0,0 -24,24 -48,0l-121 -49c-24,-24 -49,-48 -49,-96l0 -387c0,0 25,-24 25,0l169 73c0,0 24,24 24,48l0 411 0 0 0 0zm1039 -145c0,48 -24,72 -49,96l-120 49c-24,24 -49,0 -49,0l0 -508c0,-24 0,-24 -24,-24l-241 121c-25,24 -49,48 -49,97l0 483c0,24 0,48 -24,48l-24 24c-24,0 -73,0 -97,0l-24 -24c-24,0 -24,-24 -24,-48l0 -483c0,-49 -24,-73 -48,-97l-484 -266 0 -24c0,-24 25,-48 49,-72l48 -24c24,-25 73,-25 97,0l386 217c24,0 73,0 97,0l169 -97c24,-24 24,-48 0,-48l-387 -217c-24,-25 -24,-49 0,-49l121 -72c24,-24 73,-24 97,0l531 290c25,24 49,48 49,72l0 556 0 0 0 0z"/>
 </g>
</svg>
